<?xml version="1.0" encoding="UTF-8"?>
<svg id="Layer_1" data-name="Layer 1" xmlns="http://www.w3.org/2000/svg" version="1.1" viewBox="0 0 22 21">
  <defs>
    <style>
      .cls-1 {
        fill: none;
        stroke: #39c;
        stroke-width: 1.7px;
      }

      .cls-2 {
        fill: #4f5177;
        stroke-width: 0px;
      }
    </style>
  </defs>
  <path class="cls-2" d="M8.5,20.1c4.7,0,8.5-3.8,8.5-8.5S13.2,3.2,8.5,3.2,0,7,0,11.7s3.8,8.5,8.5,8.5Z"/>
  <path class="cls-1" d="M20.8,9c0,4.4-3.6,8-8,8s-8-3.6-8-8S8.3,1,12.7,1s8,3.6,8,8Z"/>
  <path class="cls-1" d="M20.8,9c0,4.4-3.6,8-8,8s-8-3.6-8-8S8.3,1,12.7,1s8,3.6,8,8Z"/>
</svg>