<svg xmlns="http://www.w3.org/2000/svg" width="82" height="82" viewBox="0 0 82 82" fill="none"><path d="M76 1H6C3.23858 1 1 3.23858 1 6V76C1 78.7614 3.23858 81 6 81H76C78.7614 81 81 78.7614 81 76V6C81 3.23858 78.7614 1 76 1Z" stroke="#0079AB" stroke-width="2" stroke-miterlimit="10"></path><path d="M32.008 46.8358C26.6803 46.8358 22.3333 51.1818 22.3333 56.5677V60.3272C22.3333 61.1804 23.0225 61.8736 23.8707 61.8736H41.6561V56.5677C41.6826 51.1818 37.3622 46.8358 32.008 46.8358Z" stroke="#0079AB" stroke-width="2" stroke-miterlimit="10" stroke-linecap="round"></path><path d="M52.9743 46.8358H49.7405C45.2875 46.8358 41.6827 50.4619 41.6827 54.9413V61.8736H47.8321" stroke="#0079AB" stroke-width="2" stroke-miterlimit="10" stroke-linecap="round"></path><path d="M35.3212 42.1697V47.0764" stroke="#0079AB" stroke-width="2" stroke-miterlimit="10" stroke-linecap="round"></path><path d="M48.0438 42.1697V47.0764" stroke="#0079AB" stroke-width="2" stroke-miterlimit="10" stroke-linecap="round"></path><path d="M53.4248 26.1986V30.9446C53.4248 37.4504 48.1501 44.6494 41.6826 44.6494C35.2152 44.6494 29.9405 37.4504 29.9405 30.9446V26.1187" stroke="#0079AB" stroke-width="2" stroke-miterlimit="10" stroke-linecap="round"></path><path d="M52.8945 26.12L50.2439 25.8C44.5717 25.1067 38.8199 25.1067 33.1476 25.8L30.497 26.12C29.7549 26.12 29.1452 25.5067 29.1452 24.76V21.56C29.1452 19.0533 31.1862 17 33.6777 17H49.7403C52.2319 17 54.2729 19.0533 54.2729 21.56V24.76C54.2464 25.5067 53.6367 26.12 52.8945 26.12Z" stroke="#0079AB" stroke-width="2" stroke-miterlimit="10" stroke-linecap="round"></path><path d="M29.3044 34.0917C28.0852 34.0117 27.1044 32.8917 27.1044 31.5051C27.1044 30.1184 28.0852 28.9717 29.3044 28.9184" stroke="#0079AB" stroke-width="2" stroke-miterlimit="10" stroke-linecap="round"></path><path d="M54.0609 34.0917C55.2801 34.0117 56.2608 32.8917 56.2608 31.5051C56.2608 30.1184 55.2801 28.9717 54.0609 28.9184" stroke="#0079AB" stroke-width="2" stroke-miterlimit="10" stroke-linecap="round"></path><path d="M43.0609 40.5176H40.3308C38.6079 40.5176 37.2031 39.1043 37.2031 37.371C37.2031 35.6376 38.6079 34.2243 40.3308 34.2243H43.0609C44.7838 34.2243 46.1886 35.6376 46.1886 37.371C46.1621 39.1043 44.7573 40.5176 43.0609 40.5176Z" stroke="#0079AB" stroke-width="2" stroke-miterlimit="10" stroke-linecap="round"></path><path d="M30.3647 34.2243C30.3647 34.2243 33.0153 36.891 37.1767 37.7176" stroke="#0079AB" stroke-width="2" stroke-miterlimit="10" stroke-linecap="round"></path><path d="M53.0007 34.2243C53.0007 34.2243 50.3501 36.891 46.1887 37.7176" stroke="#0079AB" stroke-width="2" stroke-miterlimit="10" stroke-linecap="round"></path><path d="M46.6923 30.4118C47.351 30.4118 47.885 29.8745 47.885 29.2118C47.885 28.549 47.351 28.0118 46.6923 28.0118C46.0335 28.0118 45.4995 28.549 45.4995 29.2118C45.4995 29.8745 46.0335 30.4118 46.6923 30.4118Z" fill="#0079AB"></path><path d="M37.2031 30.4118C37.8619 30.4118 38.3959 29.8745 38.3959 29.2118C38.3959 28.549 37.8619 28.0118 37.2031 28.0118C36.5444 28.0118 36.0104 28.549 36.0104 29.2118C36.0104 29.8745 36.5444 30.4118 37.2031 30.4118Z" fill="#0079AB"></path><path d="M52.4177 64.8599C50.2177 64.0867 49.9261 60.0606 50.6417 58.0075L55.1212 45.1294C55.5984 43.7696 57.0562 43.0763 58.3815 43.5563L60.9261 44.4628C62.2779 44.9427 62.967 46.4092 62.4899 47.7423L58.0104 60.6205C57.3212 62.6735 54.7237 65.6864 52.4177 64.8599Z" stroke="#0079AB" stroke-width="2" stroke-miterlimit="10" stroke-linecap="round"></path><path d="M62.1719 45.3426C62.1719 45.3426 61.6683 44.1961 62.5165 42.8363C63.3646 41.4765 65.8297 39.2902 64.7164 32.6245C64.7164 32.6245 58.0104 34.5442 58.3285 40.7833C58.3285 40.7833 58.5141 43.2629 56.261 43.7695" stroke="#0079AB" stroke-width="2" stroke-miterlimit="10" stroke-linecap="round"></path><path d="M56.7644 48.009L59.6005 49.0224" stroke="#0079AB" stroke-width="2" stroke-miterlimit="10" stroke-linecap="round"></path><path d="M55.8634 50.3819L58.6996 51.3952" stroke="#0079AB" stroke-width="2" stroke-miterlimit="10" stroke-linecap="round"></path><path d="M54.9357 52.7283L57.7983 53.7149" stroke="#0079AB" stroke-width="2" stroke-miterlimit="10" stroke-linecap="round"></path></svg>