<svg xmlns="http://www.w3.org/2000/svg" width="82" height="82" viewBox="0 0 82 82" fill="none"><path d="M76 1H6C3.23858 1 1 3.23858 1 6V76C1 78.7614 3.23858 81 6 81H76C78.7614 81 81 78.7614 81 76V6C81 3.23858 78.7614 1 76 1Z" stroke="#0079AB" stroke-width="2" stroke-miterlimit="10"></path><path d="M26.6058 29.377C26.6058 29.377 26.4742 18.6304 39.7418 17.1371C53.0094 15.6437 55.5366 26.7904 55.6419 29.377C55.7472 31.9637 55.5366 37.4037 54.6152 40.0704C53.6939 42.737 50.6139 46.9771 48.9028 48.5771C44.059 53.1104 42.8482 57.1104 41.8215 59.3237C40.7948 61.5371 38.3993 65.0037 33.8188 65.0037C29.2383 65.0037 25.8161 60.0171 25 58.2837" stroke="#0079AB" stroke-width="2" stroke-miterlimit="10" stroke-linecap="round" stroke-linejoin="round"></path><path d="M38.8468 23.0305C38.8468 23.0305 32.8974 28.2571 32.7921 31.3771C32.6868 34.4971 29.4752 36.7105 29.4752 38.0971C29.4752 39.4838 31.6602 42.2571 34.161 42.6038C36.6619 42.9504 29.3436 46.9771 29.4752 48.5505C29.5805 50.1238 27.8694 53.4838 34.161 55.3504" stroke="#0079AB" stroke-width="2" stroke-miterlimit="10" stroke-linecap="round" stroke-linejoin="round"></path><path d="M43.3745 27.8037C43.3745 27.8037 46.6914 32.5237 46.4545 35.1904C46.2175 37.8837 44.7434 41.697 44.9277 43.217" stroke="#0079AB" stroke-width="2" stroke-miterlimit="10" stroke-linecap="round" stroke-linejoin="round"></path></svg>