<svg xmlns="http://www.w3.org/2000/svg" width="75" height="75" viewBox="0 0 75 75" fill="none"><path d="M13.2417 43.3211L13.6044 43.4538C14.3691 43.7328 15.1988 43.4853 15.6974 42.8933C22.0907 45.2269 22.4845 45.2208 23.7514 46.4036C24.5536 47.1524 25.4828 47.723 26.5135 48.099L41.8132 53.6832C44.8357 54.7867 47.5401 51.4827 45.9259 48.7387C47.9598 48.0202 48.8279 45.6389 47.7358 43.7801C48.0581 43.6661 48.3617 43.5055 48.6371 43.3025C48.6448 43.3191 55.3268 57.6823 55.5451 58.1513C55.6126 58.2961 55.7449 58.4392 55.8993 58.5173L59.9651 60.5674C60.1803 60.6757 60.5155 60.7465 60.8519 60.7117L63.5198 66.4467C63.7006 66.8353 64.162 67.0039 64.551 66.8232C64.9395 66.6424 65.1082 66.1806 64.9274 65.7921L62.2591 60.0559C62.5017 59.8217 62.6638 59.5209 62.72 59.286L63.771 54.8554C63.8086 54.6961 63.7944 54.5097 63.7196 54.3488L61.0626 48.6376C60.8818 48.249 60.4204 48.0804 60.0315 48.2612C59.6429 48.4423 59.4743 48.9037 59.655 49.2927L61.9845 54.2994L56.6252 56.7927L56.0202 55.4923L56.5803 55.2315C56.9693 55.0507 57.1375 54.5889 56.9567 54.2004C56.776 53.8118 56.3146 53.6432 55.9256 53.8239L55.3656 54.0847L54.6875 52.6278L55.2479 52.367C55.6365 52.1863 55.8051 51.7245 55.6244 51.3359C55.4436 50.9473 54.9819 50.7787 54.5929 50.9594L54.0328 51.2203L53.3551 49.7634L53.9152 49.503C54.3041 49.3218 54.4724 48.8604 54.2916 48.4714C54.1113 48.0828 53.6495 47.9142 53.2605 48.095L52.7005 48.3558L52.0228 46.8989L52.5828 46.6381C52.9714 46.4573 53.14 45.9956 52.9593 45.607C52.7781 45.2184 52.3167 45.0498 51.9277 45.2305L51.3677 45.4913L50.7038 44.0639L56.0627 41.5707L58.1265 46.0065C58.3073 46.3951 58.7687 46.5637 59.1576 46.3829C59.5462 46.2022 59.7148 45.7404 59.5341 45.3518L57.3239 40.6006C57.7521 40.2266 58.0825 39.7491 58.2826 39.2003C58.93 37.4268 58.019 35.4677 56.2451 34.8208L55.8702 34.6837C55.9693 34.3295 55.9487 33.9401 55.7817 33.5814L55.4509 32.8697C55.0789 32.0699 54.1303 31.7234 53.3297 32.0958L51.3293 33.0262L51.2957 33.0141L49.8117 29.8241L49.9848 29.7437C50.785 29.3712 51.1312 28.4226 50.7592 27.6224L50.428 26.9111C50.259 26.5476 49.9662 26.2775 49.6217 26.1263C49.629 25.9609 49.6241 25.7931 49.6047 25.6237C49.4579 24.3394 47.9432 22.8797 46.6274 23.0079L41.6142 23.5125C41.1876 23.5554 40.8767 23.9363 40.9195 24.3629C40.9624 24.7891 41.3413 25.0996 41.7699 25.0572C41.7824 25.0559 46.7572 24.5545 46.7694 24.5545C47.2303 24.5545 48.0047 25.2949 48.0625 25.8C48.1438 26.5124 47.7208 27.1966 47.0269 27.4384L42.7052 29.0037C41.5253 29.4307 41.5236 31.0999 42.7019 31.5301C43.2879 31.7436 55.1129 36.0597 55.7129 36.2789C56.6781 36.6311 57.1767 37.7026 56.8245 38.6678C56.4747 39.6253 55.4076 40.1336 54.4356 39.7794L48.0847 37.4612C47.585 37.2788 44.0432 35.9861 43.5503 35.8062C43.1475 35.6594 42.7019 35.8668 42.5552 36.2696C42.408 36.6719 42.6154 37.1175 43.0182 37.2647L47.2429 38.8069C48.811 39.3791 48.8696 41.5581 47.3901 42.2464C46.9388 42.4562 46.4329 42.4777 45.9651 42.307L41.7404 40.7652C41.3376 40.618 40.892 40.8255 40.7453 41.2282C40.5981 41.6309 40.8055 42.0765 41.2083 42.2233L45.433 43.7655C46.9877 44.3328 47.0795 46.5075 45.5802 47.205C45.1289 47.4149 44.6226 47.4367 44.1552 47.266L39.9305 45.7238C39.5277 45.5771 39.0821 45.7841 38.9354 46.1868C38.7882 46.5896 38.9956 47.0352 39.3983 47.1823L43.6231 48.7242C44.5883 49.0764 45.0868 50.1483 44.7346 51.1131C44.3825 52.0787 43.3105 52.5773 42.3453 52.2247C25.6737 46.1399 26.1152 46.486 24.8112 45.2685C23.2576 43.8177 22.5302 43.7344 16.3383 41.4744C16.6181 40.7074 21.3855 27.645 21.6168 27.0122L23.2851 27.6212C24.5568 28.0854 25.9875 28.0991 26.822 27.8731C36.2694 25.3354 33.8922 25.8509 38.1477 25.4223C38.5743 25.3794 38.8852 24.9989 38.842 24.5723C38.7991 24.1457 38.4194 23.8348 37.992 23.8777C33.3977 24.3406 35.9734 23.8073 26.444 26.3673C25.5661 26.5403 24.6583 26.4696 23.8173 26.1627L22.0611 25.5222C22.0891 24.7264 21.6091 23.9666 20.8218 23.6791L20.4591 23.5469C19.4805 23.1894 18.3932 23.6953 18.0366 24.6738L12.1148 40.8986C11.7573 41.8772 12.2628 42.9641 13.2417 43.3211ZM53.9843 33.5034C54.0086 33.4929 54.0332 33.5038 54.0429 33.5248L54.3187 34.1176L53.3915 33.7791L53.9843 33.5034ZM49.2331 32.2616C48.9998 32.1763 47.6501 31.6838 47.4002 31.5924L47.1531 31.061L48.4038 30.4792L49.2331 32.2616ZM49.3512 28.2775C49.3613 28.2997 49.352 28.326 49.3298 28.3361C48.8251 28.571 45.4653 30.1339 44.9174 30.389C44.8948 30.3995 44.8689 30.3894 44.8588 30.3676L44.6627 29.9458C47.7249 28.8367 48.3904 28.751 49.092 27.7203L49.3512 28.2775ZM58.0283 57.8521L61.8907 56.0556L61.2187 58.8873C61.2029 58.9237 61.1738 58.9536 61.1374 58.9706L60.9405 59.0619C60.9405 59.0619 60.7447 59.1533 60.7435 59.1537C60.7071 59.1707 60.6655 59.1735 60.6271 59.1622L58.0283 57.8521ZM49.7212 41.9528C49.724 41.9463 49.7758 41.823 49.7774 41.8198L52.2921 40.65L53.4518 41.0733L50.0487 42.6564L49.7212 41.9528ZM13.5729 41.4312L19.4947 25.206C19.5574 25.0349 19.7531 24.9419 19.9266 25.0054L20.2893 25.1376C20.4607 25.2003 20.5529 25.398 20.4902 25.5695C20.4579 25.6584 14.6651 41.5294 14.5684 41.7943C14.5057 41.9657 14.308 42.0579 14.1362 41.9953L13.7739 41.863C13.6016 41.8 13.5098 41.6034 13.5729 41.4312Z" fill="#0079AB"></path><path d="M5 1H70C72.2091 1 74 2.79086 74 5V70C74 72.2091 72.2091 74 70 74H5C2.79086 74 1 72.2091 1 70V5C1 2.79086 2.79086 1 5 1Z" stroke="#0079AB" stroke-width="2"></path></svg>