<svg xmlns="http://www.w3.org/2000/svg" width="82" height="82" viewBox="0 0 82 82" fill="none"><path d="M76 1H6C3.23858 1 1 3.23858 1 6V76C1 78.7614 3.23858 81 6 81H76C78.7614 81 81 78.7614 81 76V6C81 3.23858 78.7614 1 76 1Z" stroke="#0079AB" stroke-width="2" stroke-miterlimit="10"></path><path d="M42.5913 57.1509V51.2192C42.5913 51.0611 42.8046 51.0083 42.8846 51.1401" stroke="#0079AB" stroke-width="2" stroke-miterlimit="10" stroke-linecap="round" stroke-linejoin="round"></path><path d="M42.8833 51.1666C50.5288 52.9856 53.7941 52.0366 54.4047 49.1102C54.6436 47.9503 54.0064 47.1857 54.033 46.4212C54.0595 45.7885 54.8294 44.9449 54.8294 44.734C54.8294 44.0485 55.1745 43.0995 55.7585 42.704L58.7318 40.7268C59.0503 40.5159 59.1565 40.0677 58.9707 39.7513L54.1923 33.2133C53.7675 32.6597 53.502 31.9742 53.4224 31.2888C53.2897 30.1288 53.0507 29.0479 52.7056 27.967C50.6615 21.5872 45.0867 17 37.4412 17C27.8047 17 20 24.2762 20 33.266C20 36.2978 20.9026 39.145 22.4423 41.5704C22.4423 41.5704 23.398 42.7567 24.3802 45.2876C25.3624 47.8185 26.3181 51.7202 26.3181 57.151" stroke="#0079AB" stroke-width="2" stroke-miterlimit="10" stroke-linecap="round" stroke-linejoin="round"></path><path d="M52.3076 56.1491L53.0509 60.9999" stroke="#0079AB" stroke-width="2" stroke-miterlimit="10" stroke-linecap="round" stroke-linejoin="round"></path><path d="M54.4046 57.5463L52.5198 56.3073C52.387 56.2282 52.2278 56.2546 52.1216 56.36L50.5818 58.1263" stroke="#0079AB" stroke-width="2" stroke-miterlimit="10" stroke-linecap="round" stroke-linejoin="round"></path><path d="M57.9883 53.3547L61.3332 56.9664" stroke="#0079AB" stroke-width="2" stroke-miterlimit="10" stroke-linecap="round" stroke-linejoin="round"></path><path d="M60.5102 53.3547H58.2538C58.0945 53.3547 57.9618 53.4601 57.9618 53.6183L57.6697 55.9383" stroke="#0079AB" stroke-width="2" stroke-miterlimit="10" stroke-linecap="round" stroke-linejoin="round"></path><path d="M51.2985 24.8561C51.2985 24.8561 47.3962 28.7842 38.211 28.9951C29.0258 29.206 21.7785 31.4733 21.1414 39.1449" stroke="#0079AB" stroke-width="2" stroke-miterlimit="10" stroke-linecap="round" stroke-linejoin="round"></path></svg>