<svg xmlns="http://www.w3.org/2000/svg" width="75" height="75" viewBox="0 0 75 75" fill="none"><path d="M5 1H70C72.2091 1 74 2.79086 74 5V70C74 72.2091 72.2091 74 70 74H5C2.79086 74 1 72.2091 1 70V5C1 2.79086 2.79086 1 5 1Z" stroke="#0079AB" stroke-width="2"></path><path d="M50.9834 42.1322L48.9526 39.4453C48.5906 38.9664 48.3912 38.3719 48.3912 37.7716V36.7087C49.3019 36.6647 50.0299 35.9122 50.0299 34.9908V33.1636C50.0299 32.2141 49.2573 31.4415 48.3078 31.4415H40.2342C39.2847 31.4415 38.5121 32.2141 38.5121 33.1636V34.9908C38.5121 35.9122 39.2401 36.6647 40.1508 36.7087V37.7716C40.1508 38.3719 39.9514 38.9663 39.5894 39.4452L37.5586 42.1321C36.972 42.9082 36.6489 43.8713 36.6489 44.8442V57.2515C36.6489 58.2156 37.4333 58.9999 38.3973 58.9999H50.1446C51.1087 58.9999 51.893 58.2156 51.893 57.2515V44.8442C51.893 43.8713 51.5699 42.9082 50.9834 42.1322ZM38.371 48.6408H50.1709V52.4397H38.371V48.6408ZM40.2341 33.1636H48.3077L48.3088 34.9908C48.3088 34.9908 48.3085 34.9908 48.3077 34.9908H47.5301H41.0118H40.2342V33.1636H40.2341ZM38.9324 43.1706L40.9632 40.4836C41.5498 39.7075 41.8728 38.7444 41.8728 37.7716V36.7129H46.669V37.7716C46.669 38.7443 46.9921 39.7075 47.5787 40.4836L49.6096 43.1706C49.9715 43.6494 50.1709 44.2438 50.1709 44.8442V46.9187H38.371V44.8442C38.371 44.2439 38.5704 43.6495 38.9324 43.1706ZM50.1446 57.2778H38.3973C38.3828 57.2778 38.371 57.266 38.371 57.2515V54.1618H50.1709V57.2515C50.1708 57.266 50.159 57.2778 50.1446 57.2778Z" fill="#0079AB"></path><path d="M34.7005 15H24.8611C24.3855 15 24 15.3855 24 15.8611C24 16.3367 24.3855 16.7222 24.8611 16.7222H27.0639V22.2183C26.1361 22.2434 25.3886 23.0043 25.3886 23.9381V35.1682C25.3886 35.6438 25.7741 36.0293 26.2497 36.0293C26.7252 36.0293 27.1108 35.6438 27.1108 35.1682V28.6923L32.4684 28.6872L32.4706 31.1785L30.4936 31.1804C30.0181 31.1808 29.6329 31.5667 29.6334 32.0422C29.6338 32.5175 30.0192 32.9025 30.4945 32.9025H30.4953L32.4721 32.9006L32.4741 35.1134L30.4937 35.1153C30.0182 35.1157 29.633 35.5016 29.6335 35.9771C29.6339 36.4524 30.0193 36.8374 30.4945 36.8374H30.4954L32.4757 36.8355L32.4777 39.0483L30.5453 39.0502C30.0698 39.0506 29.6847 39.4365 29.6851 39.912C29.6855 40.3873 30.071 40.7723 30.5462 40.7723H30.5471L32.4793 40.7704L32.4812 42.9833L30.597 42.9851C30.1214 42.9855 29.7362 43.3714 29.7367 43.8469C29.7372 44.3223 30.1226 44.7072 30.5978 44.7072H30.5986L32.4828 44.7054L32.4847 46.8063L29.8073 49.8704L27.127 46.8114V42.9294C27.127 42.4538 26.7415 42.0683 26.2659 42.0683C25.7903 42.0683 25.4048 42.4538 25.4048 42.9294V46.8114C25.4048 47.2292 25.5564 47.6322 25.8317 47.9463L28.9471 51.5019V58.1389C28.9471 58.6145 29.3326 59 29.8082 59C30.2837 59 30.6693 58.6145 30.6693 58.1389V51.5011L33.7815 47.9393C34.056 47.625 34.2071 47.222 34.2068 46.8046L34.1865 23.9365C34.1856 22.9883 33.414 22.2169 32.4661 22.216V16.7221H34.7008C35.1764 16.7221 35.5619 16.3366 35.5619 15.861C35.5619 15.3854 35.1761 15 34.7005 15V15ZM27.1107 26.97V23.938H32.4641L32.4667 26.965L27.1107 26.97ZM30.7437 22.2158H28.786V16.7221H30.7437V22.2158Z" fill="#0079AB"></path><path d="M26.2498 39.9166C26.7253 39.9166 27.1109 39.5311 27.1109 39.0555C27.1109 38.5799 26.7253 38.1944 26.2498 38.1944C25.7742 38.1944 25.3887 38.5799 25.3887 39.0555C25.3887 39.5311 25.7742 39.9166 26.2498 39.9166Z" fill="#0079AB"></path></svg>