<svg xmlns="http://www.w3.org/2000/svg" width="75" height="75" viewBox="0 0 75 75" fill="none"><path d="M1 5C1 2.79086 2.79086 1 5 1H70C72.2091 1 74 2.79086 74 5V70C74 72.2091 72.2091 74 70 74H5C2.79086 74 1 72.2091 1 70V5Z" stroke="#0079AB" stroke-width="2"></path><path d="M56.2748 51.9721C56.2455 51.97 52.9833 51.9822 51.8618 49.4748C53.7253 48.275 55.2923 46.8433 56.4359 45.2709C56.66 44.9623 56.5916 44.5306 56.2834 44.3062C55.9749 44.0821 55.5432 44.1502 55.3188 44.4587C53.5996 46.8232 50.8106 48.8542 47.4657 50.1767C43.5255 51.7348 38.5044 52.1354 32.5422 51.3672C29.8391 51.019 27.3786 50.2974 25.2292 49.2228C22.8428 48.0298 20.9075 46.427 19.4764 44.4587C19.2524 44.1505 18.8207 44.0821 18.5122 44.3062C18.2036 44.5306 18.1353 44.9623 18.3597 45.2709C19.9221 47.4199 22.0253 49.1652 24.6114 50.4581C26.8997 51.6024 29.5087 52.3691 32.3657 52.7371C33.6636 52.9042 34.9196 53.017 36.1334 53.0764C35.9551 54.4985 36.6764 55.5204 36.7132 55.5712C36.8482 55.758 37.0594 55.8575 37.2734 55.8575C37.4134 55.8575 37.5551 55.8146 37.6772 55.7265C37.9864 55.5032 38.0559 55.0715 37.8325 54.7623C37.8268 54.7547 37.3547 54.0636 37.5236 53.1215C37.7216 53.1247 37.9188 53.1268 38.1142 53.1268C38.6787 53.1268 39.2317 53.1125 39.7754 53.0875C39.7936 54.4773 40.599 55.2458 40.7851 55.4048L41.2236 55.8142C41.3568 55.9384 41.5257 56 41.6946 56C41.8793 56 42.0633 55.9263 42.1993 55.7809C42.4596 55.5021 42.4449 55.0654 42.166 54.8049C41.5826 54.2601 41.1638 53.7436 41.1613 52.9941C42.0759 52.9124 42.9585 52.7933 43.8083 52.6358C43.9701 54.3481 45.3116 55.6138 45.3735 55.6714C45.5063 55.7945 45.6742 55.8554 45.8421 55.8554C46.0268 55.8554 46.2107 55.7817 46.3471 55.6356C46.6066 55.3579 46.5916 54.9212 46.3145 54.6606C46.3031 54.6499 45.1981 53.5961 45.1731 52.3451C45.8793 52.1726 46.5597 51.9704 47.2158 51.7409C47.4728 52.6565 48.0631 53.4383 48.9568 54.031C49.7901 54.584 50.6066 54.7787 50.6409 54.787C50.6939 54.7991 50.7465 54.8052 50.7988 54.8052C51.1123 54.8052 51.3962 54.5901 51.4706 54.2715C51.5572 53.9003 51.3267 53.5292 50.9552 53.4422C50.9491 53.4408 50.3385 53.2908 49.7203 52.8802C49.0642 52.445 48.6601 51.8941 48.5126 51.2394C49.2614 50.9216 49.9827 50.5697 50.6713 50.1871C51.2795 51.4438 52.3569 52.3759 53.8312 52.9039C55.0392 53.3366 56.117 53.3531 56.2738 53.3531H56.2917C56.6729 53.3481 56.9782 53.0352 56.9735 52.654C56.9685 52.2728 56.6564 51.965 56.2748 51.9721Z" fill="#0079AB"></path><path d="M60.8913 29.8105C60.3437 28.8687 59.6561 27.9395 58.8482 27.049C57.6488 25.7268 56.3205 24.5184 55.0065 23.5548C53.1008 22.1571 51.4493 21.1699 49.8096 20.4486C48.8954 20.0467 47.9258 19.6887 46.9279 19.3852C42.6115 18.0716 37.5718 17.6897 31.9489 18.2506C28.3087 18.6135 24.8138 19.4955 21.5613 20.8717C21.2101 21.0203 21.0458 21.4258 21.1944 21.7769C21.3429 22.1281 21.7481 22.292 22.0992 22.1435C25.224 20.8213 28.584 19.974 32.086 19.6247C37.5267 19.082 42.3849 19.4461 46.5259 20.7064C47.4716 20.9941 48.3893 21.3327 49.2537 21.7129C50.799 22.3926 52.3671 23.3315 54.1897 24.6684C55.4303 25.5782 56.6874 26.7222 57.8256 27.9768C58.389 28.5981 58.8876 29.2378 59.3135 29.8849C56.8366 28.4446 54.1167 27.1571 51.023 25.9591C50.6672 25.8216 50.2674 25.9981 50.1296 26.3535C49.9922 26.7093 50.1686 27.1091 50.5244 27.2469C53.8099 28.519 56.6594 29.8917 59.2362 31.4437C59.432 31.5615 59.6464 31.6191 59.8587 31.6191C60.1626 31.6191 60.4622 31.5007 60.6959 31.2705C61.0932 30.8793 61.172 30.2923 60.8913 29.8105Z" fill="#0079AB"></path><path d="M19.7657 31.8353C20.0989 31.8353 20.434 31.7444 20.7289 31.5572C24.0642 29.4396 24.5062 29.1726 24.561 29.1415C28.329 27.0694 32.0175 25.6734 35.5242 24.9926C36.8926 24.7267 38.2338 24.5728 39.5109 24.5352C42.2634 24.4529 45.0285 25.2761 47.6049 26.1771C47.9647 26.3034 48.3588 26.1133 48.4844 25.7533C48.6104 25.3935 48.4207 24.9994 48.0606 24.8738C45.3596 23.9289 42.4524 23.0677 39.4701 23.1546C38.1185 23.1947 36.7025 23.3569 35.2611 23.6368C31.613 24.3451 27.7892 25.7901 23.8956 27.9313C23.8362 27.9639 23.655 28.0637 19.9887 30.391C19.8212 30.4974 19.5989 30.4716 19.46 30.3298L15.6458 26.4423C15.5281 26.322 15.5195 26.1835 15.5252 26.1116C15.5306 26.0407 15.5589 25.9072 15.6902 25.8087C16.7966 24.9783 17.9885 24.2116 19.2331 23.5294C19.5674 23.3465 19.6902 22.9266 19.5069 22.5923C19.3236 22.258 18.9041 22.1352 18.5695 22.3185C17.2677 23.0319 16.0199 23.8347 14.8612 24.7045C14.4471 25.0152 14.1873 25.4898 14.1482 26.007C14.1089 26.5264 14.2957 27.0375 14.6604 27.4094L18.4743 31.2966C18.8222 31.6513 19.2921 31.8357 19.7657 31.8353Z" fill="#0079AB"></path><path d="M53.5462 33.5255C51.0486 31.9553 48.2201 31.0375 46.0349 30.4136C44.3218 29.9243 42.6306 29.5768 41.0091 29.3803C34.5921 28.6025 28.5247 30.1541 23.4634 33.8681C22.9623 34.2357 21.6688 35.2125 20.4833 36.3371C18.7222 38.0076 17.9745 39.2504 18.1298 40.2476C18.1989 40.6921 18.4795 41.2884 19.4231 41.6056C20.591 41.9975 22.1176 41.1639 23.0296 40.6656L23.1331 40.6091C28.136 37.8873 34.1912 36.8744 40.1827 37.757C41.963 38.0191 43.7481 38.4446 45.4884 39.022C47.1413 39.57 48.5587 40.3328 50.0592 41.1403C50.3935 41.3203 50.7321 41.5025 51.0783 41.685C51.9849 42.1632 53.1278 42.766 54.3498 42.766C54.8599 42.766 55.3835 42.6611 55.9093 42.3981C56.8253 41.9406 57.4263 41.301 57.6962 40.4971C58.9063 36.8955 54.872 34.3592 53.5462 33.5255ZM51.7225 40.4634C51.3796 40.2826 51.0446 40.1022 50.7132 39.9244C49.1586 39.0875 47.69 38.2972 45.9233 37.7112C44.1071 37.1088 42.2433 36.6646 40.3838 36.3908C38.9066 36.1732 37.4258 36.0658 35.9558 36.0658C31.1695 36.0658 26.5002 37.2055 22.473 39.396L22.3674 39.4537C21.9508 39.6813 21.1258 40.1316 20.479 40.2809C20.639 40.1234 20.8011 39.968 20.9661 39.8166C21.2471 39.5585 21.2657 39.1219 21.0076 38.8409C20.7875 38.6011 20.4364 38.5531 20.1636 38.7052C20.8663 37.8057 22.1656 36.534 24.2806 34.9816C29.0537 31.4792 34.7807 30.0163 40.8431 30.7512C42.3929 30.9391 44.0122 31.2723 45.6559 31.7416C47.7527 32.3404 50.4612 33.2173 52.8114 34.6945C55.8209 36.587 56.9613 38.2814 56.3976 40.0239C56.0056 39.6001 55.5901 39.1863 55.162 38.7936C54.881 38.5359 54.4443 38.5545 54.1862 38.8355C53.9285 39.1165 53.9475 39.5535 54.2285 39.8112C54.6344 40.1835 55.0285 40.5765 55.3993 40.9785C55.4268 41.0082 55.4565 41.034 55.4873 41.0579C55.4254 41.0937 55.3603 41.1292 55.2923 41.1632C54.2249 41.6965 53.0924 41.1861 51.7225 40.4634Z" fill="#0079AB"></path><path d="M15.3682 46.6664C15.0113 46.5322 14.6133 46.7129 14.479 47.0698C14.3738 47.349 14.2729 47.635 14.178 47.9196C14.0577 48.2814 14.2535 48.6723 14.6154 48.7926C14.6877 48.8165 14.7611 48.828 14.8334 48.828C15.1226 48.828 15.3921 48.6447 15.4884 48.3552C15.5775 48.0874 15.6728 47.8183 15.7715 47.5555C15.9058 47.199 15.7254 46.8006 15.3682 46.6664Z" fill="#0079AB"></path><path d="M24.0842 35.8546C23.5723 36.1463 23.0684 36.4592 22.5862 36.7849C22.2702 36.9986 22.1871 37.4278 22.4008 37.7438C22.5343 37.941 22.7519 38.0477 22.9735 38.0477C23.1067 38.0477 23.2409 38.0094 23.3594 37.9292C23.8125 37.6232 24.2861 37.329 24.7675 37.0548C25.0989 36.8658 25.2145 36.4441 25.0259 36.113C24.8369 35.7816 24.4156 35.6656 24.0842 35.8546Z" fill="#0079AB"></path><path d="M28.6521 33.8366C28.0937 34.0209 27.5386 34.2249 27.002 34.4426C26.6487 34.5861 26.4787 34.9888 26.6223 35.342C26.7311 35.6105 26.9895 35.773 27.2622 35.773C27.3485 35.773 27.4366 35.7565 27.5217 35.7222C28.0297 35.516 28.5558 35.3227 29.0849 35.148C29.4471 35.0281 29.6436 34.638 29.524 34.2758C29.4045 33.9135 29.014 33.7167 28.6521 33.8366Z" fill="#0079AB"></path><path d="M59.3527 44.1075C59.0667 43.5928 58.756 43.0852 58.4299 42.5984C58.2177 42.2817 57.7889 42.1968 57.4721 42.4091C57.1553 42.6214 57.0709 43.0505 57.2828 43.3669C57.5877 43.8219 57.878 44.2969 58.1454 44.7783C58.2717 45.0052 58.5069 45.1334 58.7496 45.1334C58.863 45.1334 58.9783 45.1054 59.0842 45.0464C59.4178 44.8613 59.5378 44.4407 59.3527 44.1075Z" fill="#0079AB"></path><path d="M33.5001 32.7001C32.9217 32.7842 32.3408 32.8862 31.7742 33.0036C31.4005 33.0806 31.1603 33.446 31.2376 33.8193C31.3049 34.1458 31.5923 34.3702 31.913 34.3702C31.9592 34.3702 32.0065 34.3656 32.0534 34.3559C32.5938 34.2442 33.1472 34.1469 33.6991 34.0667C34.0764 34.0116 34.3377 33.6615 34.2829 33.2839C34.2282 32.9066 33.8781 32.6457 33.5001 32.7001Z" fill="#0079AB"></path><path d="M17.7221 42.417C17.4054 42.2048 16.9765 42.2899 16.7643 42.6067C16.4386 43.0939 16.1282 43.6018 15.8422 44.1169C15.6572 44.4501 15.7775 44.8707 16.1111 45.0557C16.217 45.1144 16.3319 45.1423 16.4454 45.1423C16.688 45.1423 16.9236 45.0142 17.0496 44.7873C17.3173 44.3055 17.6072 43.8301 17.9122 43.3749C18.1241 43.0581 18.0393 42.6289 17.7221 42.417Z" fill="#0079AB"></path><path d="M48.1869 34.4379C47.6503 34.2206 47.0952 34.017 46.5368 33.8326C46.1746 33.7134 45.7844 33.9103 45.6649 34.2725C45.5453 34.6344 45.7422 35.0249 46.1044 35.1445C46.6338 35.3188 47.16 35.5117 47.6682 35.7179C47.7531 35.7522 47.8408 35.7687 47.927 35.7687C48.2001 35.7687 48.4586 35.6058 48.5674 35.3374C48.7105 34.9837 48.5405 34.5811 48.1869 34.4379Z" fill="#0079AB"></path><path d="M52.6066 36.7802C52.1238 36.4542 51.6191 36.1413 51.1069 35.8496C50.7751 35.661 50.3538 35.7766 50.1652 36.1084C49.9765 36.4398 50.0925 36.8615 50.424 37.0498C50.9057 37.3243 51.3804 37.6185 51.8339 37.9249C51.9523 38.0047 52.0866 38.043 52.2197 38.043C52.4413 38.043 52.6589 37.9364 52.7924 37.7388C53.0057 37.4227 52.9227 36.9936 52.6066 36.7802Z" fill="#0079AB"></path><path d="M38.4743 32.4037C38.1826 32.3933 37.8883 32.388 37.5998 32.388C37.3096 32.3855 37.0096 32.3933 36.7129 32.4041C36.3317 32.418 36.0339 32.738 36.0478 33.1192C36.0614 33.4919 36.3678 33.7846 36.7376 33.7846C36.7458 33.7846 36.7548 33.7843 36.763 33.7843C37.0411 33.7739 37.3199 33.7689 37.5927 33.7689C37.8665 33.7696 38.1471 33.7739 38.4249 33.7836C38.8082 33.7983 39.1261 33.4994 39.1397 33.1185C39.1533 32.7373 38.8555 32.4173 38.4743 32.4037Z" fill="#0079AB"></path><path d="M43.4142 33.0011C42.8479 32.8844 42.2674 32.7828 41.6882 32.6987C41.3113 32.6432 40.9605 32.9052 40.9058 33.2828C40.8506 33.6601 41.1123 34.0105 41.4899 34.0653C42.0422 34.1454 42.5959 34.2424 43.1357 34.3538C43.1826 34.3634 43.2295 34.3681 43.2757 34.3681C43.5964 34.3681 43.8838 34.1433 43.9511 33.8169C44.0281 33.4432 43.7879 33.0781 43.4142 33.0011Z" fill="#0079AB"></path><path d="M61.0218 47.9195C60.9266 47.6332 60.8253 47.3472 60.7212 47.0698C60.587 46.7129 60.1886 46.5325 59.8317 46.6668C59.4748 46.801 59.2944 47.199 59.4287 47.5559C59.5267 47.8168 59.622 48.0856 59.7114 48.3555C59.8077 48.6451 60.0773 48.8283 60.3665 48.8283C60.4388 48.8283 60.5125 48.8169 60.5844 48.7929C60.9467 48.6723 61.1425 48.2814 61.0218 47.9195Z" fill="#0079AB"></path></svg>