<svg xmlns="http://www.w3.org/2000/svg" width="82" height="82" viewBox="0 0 82 82" fill="none"><path d="M76 1H6C3.23858 1 1 3.23858 1 6V76C1 78.7614 3.23858 81 6 81H76C78.7614 81 81 78.7614 81 76V6C81 3.23858 78.7614 1 76 1Z" stroke="#0079AB" stroke-width="2" stroke-miterlimit="10"></path><path d="M44.415 17C44.415 17 44.1484 20.7701 40.3096 27.9627C38.4435 31.4922 35.6977 35.8238 31.7256 40.9309C21.9152 53.5246 27.3535 60.5568 32.0987 62.3751C36.8439 64.1933 42.2557 61.5194 44.1484 61.1183C46.0145 60.7173 50.8397 60.129 54.3053 63.1505C57.7709 66.1719 65.2085 66.2789 64.9953 57.4017" stroke="#0079AB" stroke-width="2" stroke-miterlimit="10" stroke-linecap="round" stroke-linejoin="round"></path><path d="M36.5777 17C36.5777 17 36.2844 21.0642 32.1524 28.7916C30.1263 32.5885 27.1939 37.2677 22.9019 42.7491C15.9707 51.653 16.1039 57.9632 18.4499 61.8135" stroke="#0079AB" stroke-width="2" stroke-miterlimit="10" stroke-linecap="round" stroke-linejoin="round" stroke-dasharray="3 3"></path></svg>