<svg xmlns="http://www.w3.org/2000/svg" width="75" height="75" viewBox="0 0 75 75" fill="none"><path d="M1 5C1 2.79086 2.79086 1 5 1H70C72.2091 1 74 2.79086 74 5V70C74 72.2091 72.2091 74 70 74H5C2.79086 74 1 72.2091 1 70V5Z" stroke="#0079AB" stroke-width="2"></path><path d="M37.2738 16C36.4705 20.0166 32.1979 31.0648 21.4998 44.0384C20.706 45.0009 20.1252 46.1466 20.0384 47.3911C19.6521 52.9321 22.2696 55.7479 23.7738 56.5C25.9405 57.1667 31.6738 58.1 37.2738 56.5C42.109 55.1186 45.5525 57.365 47.1539 59.1845C47.5798 59.6683 48.1551 60.0322 48.799 60.0046C51.9383 59.87 56.6321 58.373 56.2739 53" stroke="#0079AB" stroke-width="2"></path></svg>